<svg xmlns="http://www.w3.org/2000/svg" width="512" height="512" viewBox="0 0 512 512">
  <defs>
    <linearGradient id="bg" x1="0%" y1="0%" x2="100%" y2="100%">
      <stop offset="0%" style="stop-color:#0a1628"/>
      <stop offset="100%" style="stop-color:#0f2440"/>
    </linearGradient>
    <linearGradient id="moon" x1="0%" y1="0%" x2="100%" y2="100%">
      <stop offset="0%" style="stop-color:#f5c842"/>
      <stop offset="100%" style="stop-color:#e8a830"/>
    </linearGradient>
    <linearGradient id="mosque" x1="0%" y1="0%" x2="100%" y2="100%">
      <stop offset="0%" style="stop-color:#00c896"/>
      <stop offset="100%" style="stop-color:#00a87a"/>
    </linearGradient>
  </defs>
  <rect width="512" height="512" rx="100" fill="url(#bg)"/>
  <!-- Crescent Moon -->
  <circle cx="256" cy="175" r="90" fill="url(#moon)"/>
  <circle cx="298" cy="154" r="74" fill="url(#bg)"/>
  <!-- Star -->
  <polygon points="234,132 240,148 256,148 243,158 248,174 234,165 220,174 225,158 212,148 228,148" fill="url(#moon)" opacity="0.9"/>
  <!-- Mosque Silhouette -->
  <path d="M120,395 L120,340 Q120,314 148,300 L148,286 Q148,260 174,246 Q200,232 226,246 L256,260 L286,246 Q312,232 338,246 Q364,260 364,286 L364,300 Q392,314 392,340 L392,395 Z" fill="url(#mosque)" opacity="0.85"/>
  <!-- Minaret left -->
  <rect x="136" y="278" width="16" height="117" rx="8" fill="url(#mosque)" opacity="0.9"/>
  <circle cx="144" cy="274" r="10" fill="url(#moon)" opacity="0.7"/>
  <!-- Minaret right -->
  <rect x="360" y="278" width="16" height="117" rx="8" fill="url(#mosque)" opacity="0.9"/>
  <circle cx="368" cy="274" r="10" fill="url(#moon)" opacity="0.7"/>
  <!-- Dome -->
  <ellipse cx="256" cy="258" rx="48" ry="37" fill="url(#mosque)"/>
  <circle cx="256" cy="220" r="8" fill="url(#moon)" opacity="0.8"/>
  <!-- Door -->
  <rect x="237" y="348" width="38" height="47" rx="19" fill="url(#bg)" opacity="0.5"/>
</svg>
